<?xml version="1.0" standalone="no"?>
<!DOCTYPE svg PUBLIC "-//W3C//DTD SVG 20010904//EN"
  "http://www.w3.org/TR/2001/REC-SVG-20010904/DTD/svg10.dtd">
<svg height="3567.000000pt" preserveAspectRatio="xMidYMid meet"
     version="1.0" viewBox="0 0 3567.000000 3567.000000" width="3567.000000pt"
     xmlns="http://www.w3.org/2000/svg">
  <metadata>
    Created by potrace 1.11, written by Peter Selinger 2001-2013
  </metadata>
  <g fill="#000000"
     stroke="none" transform="translate(0.000000,3567.000000) scale(0.100000,-0.100000)">
    <path d="M2850 29577 c3 -2 93 -73 200 -158 182 -143 441 -351 466 -374 6 -5
30 -26 54 -45 115 -92 537 -453 709 -605 61 -53 58 -51 141 -125 40 -36 83
-73 94 -83 29 -25 153 -137 186 -167 15 -14 64 -59 109 -100 46 -41 95 -86
110 -100 451 -419 553 -516 929 -885 140 -137 260 -255 266 -261 383 -385 754
-770 1016 -1054 52 -57 106 -115 120 -130 53 -57 196 -214 213 -233 10 -12 48
-55 86 -96 165 -183 447 -508 655 -756 37 -44 75 -89 85 -100 42 -50 329 -405
351 -435 14 -18 30 -38 35 -44 92 -101 597 -787 790 -1075 86 -127 237 -364
321 -501 63 -104 264 -460 264 -469 0 -3 -145 -6 -323 -7 -435 -1 -938 -20
-1302 -49 -33 -3 -94 -7 -135 -10 -41 -3 -97 -7 -125 -10 -27 -3 -77 -7 -110
-10 -58 -5 -141 -13 -215 -20 -19 -2 -64 -6 -100 -10 -36 -3 -99 -10 -140 -15
-41 -5 -100 -12 -130 -15 -30 -3 -66 -7 -80 -9 -14 -3 -50 -7 -81 -11 -31 -3
-65 -7 -75 -9 -11 -2 -46 -7 -79 -10 -53 -6 -214 -29 -285 -42 -14 -2 -45 -6
-70 -9 -25 -3 -67 -10 -95 -15 -27 -5 -68 -12 -90 -15 -55 -7 -251 -42 -395
-70 -41 -8 -87 -16 -101 -19 -26 -4 -212 -42 -259 -52 -14 -3 -35 -7 -46 -10
-12 -2 -82 -18 -155 -35 -74 -17 -145 -33 -158 -35 -52 -10 -475 -121 -566
-148 -27 -8 -88 -26 -135 -39 -943 -274 -1838 -692 -2460 -1151 -88 -64 -269
-208 -301 -238 -8 -7 -34 -31 -59 -52 -101 -88 -366 -354 -358 -361 1 -2 46
-6 98 -9 52 -3 122 -8 155 -11 33 -2 94 -7 135 -10 41 -3 93 -8 115 -10 22 -2
74 -7 115 -10 41 -3 95 -8 120 -10 25 -2 79 -7 120 -10 41 -4 86 -8 100 -10
14 -2 61 -7 105 -10 87 -7 128 -10 220 -21 78 -8 95 -10 189 -18 43 -4 88 -9
99 -12 12 -2 50 -6 86 -9 36 -3 82 -7 101 -10 19 -2 58 -7 85 -10 28 -3 70 -7
95 -10 25 -3 101 -12 170 -20 175 -22 188 -23 250 -30 30 -4 66 -8 80 -10 14
-2 50 -7 80 -10 30 -3 102 -13 160 -21 125 -17 140 -19 250 -34 133 -18 153
-20 180 -25 14 -3 48 -7 75 -11 28 -3 57 -8 67 -9 9 -2 38 -6 65 -10 72 -10
89 -13 193 -29 52 -8 113 -17 135 -21 55 -8 404 -64 435 -69 14 -3 41 -7 60
-10 19 -3 44 -7 55 -10 11 -2 43 -7 70 -11 28 -5 52 -9 55 -10 19 -4 81 -16
115 -21 44 -6 145 -25 485 -88 35 -7 231 -44 255 -49 11 -3 36 -7 55 -11 19
-3 44 -8 55 -10 11 -3 110 -23 220 -46 110 -23 207 -43 215 -45 8 -2 69 -15
136 -29 141 -30 346 -77 599 -136 99 -23 187 -43 195 -45 29 -6 586 -146 657
-166 189 -50 227 -60 353 -94 74 -20 236 -66 360 -102 124 -36 230 -66 235
-67 6 -2 37 -11 70 -21 33 -11 62 -20 65 -20 23 -6 103 -30 139 -42 24 -8 51
-16 60 -18 9 -2 36 -10 61 -18 25 -8 106 -34 180 -57 514 -160 1208 -402 1720
-600 25 -9 98 -37 162 -61 64 -24 116 -45 114 -46 -3 -3 -144 -28 -211 -37
-22 -3 -51 -8 -65 -10 -14 -3 -43 -7 -65 -11 -22 -3 -89 -14 -150 -25 -60 -11
-121 -21 -135 -24 -75 -12 -219 -40 -320 -61 -63 -13 -127 -26 -142 -29 -32
-7 -33 -7 -188 -41 -135 -30 -117 -26 -278 -65 -70 -17 -134 -33 -143 -35 -8
-2 -69 -17 -135 -35 -65 -17 -159 -42 -209 -55 -665 -176 -1737 -562 -2363
-851 -41 -19 -75 -34 -77 -34 -2 0 -54 -24 -117 -54 -62 -29 -135 -63 -163
-76 -67 -30 -628 -310 -696 -347 -30 -17 -103 -56 -164 -88 -60 -32 -132 -71
-158 -87 -26 -15 -50 -28 -52 -28 -7 0 -449 -256 -615 -357 -231 -139 -664
-413 -705 -446 -5 -4 -39 -26 -75 -50 -36 -23 -66 -45 -68 -49 -2 -5 -8 -8
-12 -8 -5 0 -78 -48 -161 -106 -84 -58 -160 -109 -170 -115 -10 -5 -23 -15
-31 -22 -7 -7 -67 -51 -133 -97 -66 -46 -124 -88 -130 -92 -5 -5 -113 -85
-240 -179 l-230 -170 55 6 c30 3 62 8 70 10 8 2 35 7 60 10 75 10 167 24 201
30 9 2 40 6 69 10 29 4 62 9 74 11 23 4 66 10 141 20 28 3 58 8 69 10 10 2 44
6 75 10 31 3 63 7 71 9 44 8 107 16 225 30 28 4 61 8 75 10 39 6 258 33 325
41 33 3 69 8 80 10 10 2 49 6 85 10 36 3 79 8 95 10 17 3 50 7 75 10 25 2 65
6 90 9 25 2 72 7 105 10 60 6 97 10 170 19 22 3 69 8 105 11 36 3 81 7 100 10
19 2 69 6 110 10 41 3 91 8 110 10 19 2 71 6 115 10 44 3 98 8 120 11 22 2 70
6 106 9 36 2 90 6 120 9 48 5 87 8 269 21 25 2 95 6 155 10 61 3 133 8 160 10
57 5 191 13 345 21 58 3 141 7 185 9 799 42 1972 51 2815 20 153 -5 389 -16
465 -20 39 -2 124 -7 190 -10 66 -3 138 -8 160 -10 22 -3 94 -8 160 -11 66 -4
134 -8 150 -9 17 -2 49 -3 73 -4 23 -1 42 -4 42 -8 -1 -5 -26 -28 -58 -53 -70
-56 -665 -551 -672 -559 -3 -3 -36 -33 -75 -66 -641 -549 -1321 -1205 -1780
-1719 -11 -13 -35 -40 -54 -62 -19 -21 -51 -57 -70 -80 -46 -52 -105 -121
-178 -209 -98 -119 -128 -157 -137 -174 -5 -9 -17 -23 -26 -31 -20 -19 -217
-287 -291 -395 -30 -44 -57 -81 -61 -83 -5 -2 -8 -7 -8 -12 0 -5 -27 -49 -60
-99 -33 -50 -60 -93 -60 -97 0 -3 -13 -24 -28 -47 -46 -68 -115 -193 -190
-342 -62 -124 -80 -163 -112 -240 -5 -11 -18 -40 -28 -65 -68 -158 -151 -431
-177 -579 -3 -19 -7 -37 -9 -40 -2 -3 -7 -30 -11 -60 -4 -30 -8 -62 -10 -73
-23 -117 -22 -481 1 -601 2 -11 6 -39 10 -62 3 -22 7 -44 8 -50 2 -5 9 -38 16
-73 7 -34 17 -65 21 -68 5 -3 9 -1 9 5 0 6 53 85 118 177 64 91 124 176 132
188 40 59 291 375 390 491 171 200 269 305 460 495 157 158 209 207 361 345
76 71 339 286 469 386 225 173 525 376 765 519 50 29 107 64 127 77 21 12 40
23 42 23 2 0 49 25 103 56 91 52 514 264 527 264 3 0 33 13 68 29 253 116 733
294 978 362 59 16 62 17 85 23 11 3 54 15 95 26 41 12 82 23 90 25 8 2 71 17
140 34 103 24 285 64 350 76 8 1 35 6 60 11 25 4 47 8 50 9 3 1 30 5 60 9 30
5 64 10 75 12 33 7 70 13 185 29 14 2 43 6 65 9 22 3 65 8 95 12 30 4 69 8 85
9 17 1 62 5 100 9 82 9 121 12 270 21 61 3 137 8 170 10 73 5 601 5 666 1 25
-2 108 -7 184 -11 76 -4 145 -8 154 -10 9 -1 57 -6 106 -10 50 -4 100 -8 113
-10 13 -2 53 -7 90 -11 37 -3 76 -8 87 -10 11 -2 44 -7 74 -10 30 -3 64 -8 75
-10 11 -2 38 -6 61 -9 22 -4 51 -8 65 -10 75 -12 97 -16 120 -20 14 -3 41 -7
60 -10 19 -3 80 -15 135 -26 55 -12 109 -23 120 -25 11 -2 29 -6 40 -8 11 -3
53 -12 93 -20 83 -18 331 -82 472 -122 52 -15 115 -32 140 -39 195 -55 716
-243 925 -334 11 -5 36 -16 55 -24 110 -47 196 -85 280 -125 113 -52 467 -230
526 -264 23 -12 85 -47 138 -75 244 -134 692 -417 961 -609 118 -84 420 -310
471 -353 17 -14 40 -33 50 -41 61 -49 183 -149 209 -171 17 -15 68 -59 115
-99 88 -75 199 -174 330 -294 105 -98 608 -604 706 -712 45 -49 132 -147 194
-219 62 -71 124 -143 139 -160 29 -33 156 -187 211 -255 19 -24 46 -58 60 -75
66 -78 331 -429 447 -592 l80 -112 27 82 c59 176 159 352 282 494 l47 55 231
-6 c127 -4 310 -9 406 -12 382 -13 799 -8 938 11 95 13 123 18 192 35 208 53
365 133 541 276 75 61 289 273 289 286 0 5 -4 7 -8 4 -9 -5 -200 -44 -252 -51
-19 -3 -46 -7 -60 -11 -59 -13 -289 -16 -339 -4 -170 41 -143 177 83 425 30
33 53 61 52 62 -1 1 -31 -7 -67 -18 -93 -28 -235 -60 -338 -75 -25 -4 -55 -8
-66 -10 -137 -27 -509 -21 -678 10 -12 2 -40 7 -62 11 -241 43 -549 163 -805
313 -154 90 -375 244 -501 350 -116 96 -182 154 -229 196 -74 68 -514 509
-570 572 -25 27 -84 93 -131 145 -47 52 -101 112 -120 134 -19 22 -39 45 -45
50 -5 6 -39 44 -75 85 -35 41 -66 77 -69 80 -3 3 -156 181 -340 395 -183 215
-336 392 -339 395 -4 3 -33 36 -66 75 -33 38 -69 79 -80 90 -11 12 -37 41 -57
64 -49 56 -177 198 -203 225 -235 244 -418 474 -490 616 -59 117 -67 234 -20
296 69 91 235 136 505 137 134 0 387 -17 550 -37 19 -3 60 -7 90 -11 30 -3 66
-8 80 -10 14 -2 50 -7 80 -10 30 -4 62 -9 70 -10 29 -5 95 -15 140 -20 25 -3
56 -8 70 -10 29 -5 68 -11 125 -20 23 -3 52 -8 65 -10 14 -3 45 -8 70 -11 25
-3 52 -7 60 -9 8 -3 33 -7 55 -10 37 -6 162 -28 211 -39 12 -2 38 -7 57 -10
20 -3 78 -15 129 -27 51 -11 102 -22 113 -25 11 -2 32 -6 47 -10 15 -3 29 -5
30 -4 2 1 15 -3 29 -8 14 -6 43 -13 65 -16 21 -4 53 -11 69 -16 17 -5 129 -36
250 -69 477 -130 1028 -328 1423 -512 46 -22 86 -39 88 -39 9 0 432 -211 544
-271 449 -241 949 -558 1360 -863 107 -79 412 -316 420 -325 3 -3 48 -41 100
-83 52 -42 104 -85 115 -95 11 -10 47 -40 80 -68 33 -27 76 -64 95 -81 19 -18
46 -41 60 -52 20 -16 22 -22 10 -25 -19 -7 -105 -25 -145 -32 -68 -11 -388
-97 -496 -133 -208 -71 -435 -171 -639 -283 -127 -69 -388 -249 -499 -344 -57
-49 -121 -110 -121 -116 0 -9 108 -12 465 -12 330 0 567 9 695 28 14 2 54 7
90 10 36 4 73 9 84 11 10 2 44 6 75 10 31 3 59 8 62 10 4 2 24 6 45 10 22 3
59 10 84 16 25 6 54 12 65 13 114 19 368 105 499 171 l68 35 -28 -48 c-165
-283 -461 -580 -769 -773 -115 -72 -433 -223 -492 -234 -7 -1 -16 -6 -20 -10
-4 -5 262 -6 592 -3 581 6 694 8 1025 23 85 4 182 8 215 9 93 4 325 16 375 20
25 2 95 6 155 10 61 3 130 8 155 10 25 3 86 7 135 10 50 3 110 8 135 10 25 2
83 7 130 10 47 4 101 8 120 10 31 4 79 8 225 20 55 4 160 15 215 21 61 8 114
13 185 18 34 3 74 7 90 10 17 2 57 7 90 11 105 11 139 15 185 20 90 11 116 14
170 20 30 4 66 8 80 10 14 2 66 9 115 15 171 22 209 27 263 35 18 3 52 7 75
10 23 3 51 7 63 9 12 2 45 7 75 11 30 3 79 10 109 15 85 14 132 21 170 26 19
2 60 9 90 14 53 9 85 13 168 25 20 3 48 8 62 11 43 8 64 11 111 18 25 4 57 9
70 11 13 3 78 14 144 25 66 12 145 25 175 31 30 5 70 12 89 15 18 3 43 8 55
10 11 2 83 16 160 29 116 22 242 46 411 80 17 3 41 8 55 11 14 2 36 7 50 10
14 3 36 8 50 10 14 2 36 7 50 10 14 3 39 8 55 11 17 2 46 8 65 13 19 5 53 12
75 16 22 3 44 9 48 13 9 9 -54 63 -303 261 -85 68 -156 128 -158 132 -2 4 -10
8 -17 8 -7 0 -15 3 -17 8 -1 4 -21 21 -43 38 -96 73 -376 284 -445 334 -41 29
-79 58 -85 62 -23 20 -321 229 -335 235 -8 4 -17 9 -20 13 -10 13 -429 290
-439 290 -5 0 -11 3 -13 8 -5 11 -453 292 -598 374 -25 14 -117 67 -205 118
-163 94 -198 114 -340 190 -44 23 -91 49 -104 57 -13 9 -159 84 -325 167 -276
139 -353 176 -606 294 -145 68 -362 161 -570 247 -63 26 -124 50 -135 55 -232
96 -874 330 -905 330 -6 0 -18 5 -28 10 -9 6 -69 26 -132 46 -150 47 -371 114
-390 119 -8 3 -76 22 -150 44 -354 103 -1047 270 -1335 321 -27 5 -124 23
-215 40 -91 17 -176 32 -190 35 -93 16 -272 45 -310 50 -25 3 -74 11 -110 16
-36 6 -81 13 -100 15 -19 2 -51 6 -70 9 -66 9 -105 14 -150 20 -25 3 -54 7
-65 9 -11 2 -51 7 -89 11 -38 4 -79 8 -90 10 -25 4 -146 17 -196 21 -19 1 -39
3 -43 3 -34 3 86 73 185 107 76 27 220 61 293 70 24 2 53 7 66 9 119 23 632
23 864 0 22 -2 76 -7 120 -10 44 -3 94 -8 110 -11 17 -2 53 -6 80 -8 28 -3 73
-7 100 -11 l50 -5 -35 21 c-205 128 -323 221 -432 339 -187 201 -276 397 -313
690 -3 25 -10 121 -21 315 -3 55 -7 111 -9 125 -2 14 -7 49 -10 79 -4 30 -11
65 -16 78 -5 13 -7 23 -4 23 5 0 -29 99 -51 147 -43 93 -132 201 -235 287
l-34 28 40 -22 c191 -107 541 -375 780 -595 17 -15 59 -55 95 -88 36 -33 130
-122 210 -198 80 -75 168 -159 196 -186 28 -26 118 -112 200 -189 82 -78 163
-155 180 -170 17 -16 73 -68 125 -115 109 -100 324 -287 395 -344 27 -22 54
-45 59 -51 16 -18 260 -204 375 -286 222 -159 492 -322 700 -420 58 -27 113
-54 124 -59 48 -27 363 -142 446 -164 71 -19 220 -55 240 -59 14 -2 63 -11
110 -19 263 -48 619 -56 900 -21 102 13 387 68 396 76 1 2 -113 81 -254 176
-141 95 -284 192 -317 216 -33 23 -91 64 -130 91 -38 27 -159 114 -269 194
-109 80 -208 153 -220 161 -61 42 -462 355 -646 503 -71 57 -219 178 -234 192
-6 6 -40 35 -76 65 -36 30 -67 57 -70 60 -3 3 -36 32 -75 64 -38 32 -88 75
-110 95 -22 20 -60 54 -85 75 -38 34 -108 96 -236 212 -215 195 -822 793 -994
979 -164 178 -250 272 -270 295 -12 14 -36 41 -53 60 -18 19 -75 84 -127 145
-52 60 -99 115 -105 121 -5 6 -30 35 -54 64 -25 29 -50 58 -56 64 -6 6 -40 47
-75 91 -36 44 -67 82 -70 85 -6 6 -234 291 -268 335 -12 17 -50 66 -85 111
-34 45 -72 94 -84 110 -11 16 -50 67 -85 114 -35 47 -115 157 -178 245 -62 88
-125 175 -139 194 -46 64 -91 133 -91 141 0 5 -4 10 -9 12 -21 8 -447 670
-627 976 -27 46 -56 95 -65 110 -59 99 -119 206 -119 213 0 5 -4 9 -10 9 -5 0
-10 5 -10 11 0 6 -18 41 -39 77 -41 71 -178 321 -276 507 -142 266 -425 845
-425 868 0 8 -3 8 -12 -1 -8 -8 -11 -109 -12 -354 -1 -342 5 -497 29 -758 13
-141 37 -344 50 -430 2 -14 6 -45 10 -70 3 -25 8 -56 10 -70 3 -14 7 -41 10
-60 21 -129 33 -200 50 -290 8 -41 17 -86 19 -100 3 -14 8 -36 11 -50 3 -14 7
-37 10 -53 3 -15 12 -60 21 -100 9 -39 20 -90 25 -112 4 -22 21 -93 37 -158
16 -65 26 -115 22 -110 -4 4 -90 112 -191 238 -100 127 -273 338 -383 470
-175 208 -220 262 -271 319 -5 6 -53 61 -105 121 -52 61 -104 119 -115 131
-11 12 -43 48 -72 80 -63 73 -130 146 -307 338 -344 374 -823 846 -1206 1191
-255 230 -386 342 -605 519 -93 76 -179 146 -190 155 -60 50 -467 351 -474
351 -5 0 -15 26 -21 58 -30 141 -122 449 -188 627 -87 233 -222 513 -352 731
-126 211 -356 535 -475 669 l-35 40 4 -30 c2 -16 7 -50 11 -75 4 -25 8 -56 10
-70 2 -14 7 -47 11 -75 3 -27 8 -58 9 -67 2 -9 7 -48 10 -85 4 -37 9 -70 10
-73 2 -3 6 -35 10 -70 3 -36 8 -83 11 -104 3 -22 7 -61 9 -88 2 -26 6 -67 9
-90 3 -24 8 -69 11 -100 3 -32 7 -82 10 -110 13 -144 18 -225 31 -488 14 -287
8 -878 -11 -1055 -3 -22 -7 -67 -10 -100 -5 -68 -15 -158 -20 -195 -2 -14 -7
-49 -10 -79 -4 -30 -8 -61 -10 -70 -4 -26 -15 -94 -20 -126 -4 -27 -25 -144
-40 -220 -4 -16 -8 -31 -9 -33 -2 -1 -104 131 -226 295 -123 164 -228 302
-232 308 -5 5 -41 53 -80 105 -39 52 -110 145 -157 206 -47 61 -95 123 -106
138 -11 15 -30 39 -42 54 -11 15 -89 115 -172 222 -83 107 -178 229 -211 270
-33 41 -117 147 -187 236 -71 88 -141 178 -158 199 -69 86 -312 388 -396 490
-49 61 -93 115 -97 120 -19 25 -526 631 -531 635 -3 3 -29 32 -57 65 -75 89
-91 107 -114 135 -12 14 -43 49 -68 79 -66 77 -186 215 -192 221 -3 3 -34 39
-70 80 -36 41 -69 80 -75 86 -10 11 -108 121 -199 223 -27 31 -52 58 -55 61
-3 3 -42 45 -86 95 -44 49 -91 101 -105 116 -14 14 -45 48 -69 75 -37 42 -140
153 -304 328 -279 298 -887 913 -1143 1156 -148 141 -369 348 -393 369 -16 14
-129 116 -195 176 -55 50 -176 157 -226 200 -30 26 -68 59 -85 74 -28 24 -194
166 -281 239 -75 63 -570 458 -667 532 -155 118 -530 388 -575 414 -7 4 32
-55 86 -131 94 -132 362 -526 372 -548 3 -5 30 -48 61 -95 114 -175 311 -504
437 -730 69 -123 354 -678 355 -690 0 -4 29 -72 71 -165 8 -16 26 -56 40 -88
14 -32 26 -60 26 -63 0 -3 10 -26 21 -52 38 -83 204 -529 214 -574 2 -9 17
-58 33 -110 26 -81 76 -254 87 -306 2 -9 13 -54 24 -100 12 -45 23 -95 26
-110 3 -15 7 -38 10 -52 9 -39 25 -122 31 -155 11 -64 14 -83 28 -180 28 -190
30 -221 14 -204 -44 42 -322 299 -477 439 -52 47 -99 90 -105 95 -6 6 -47 42
-90 80 -44 39 -87 77 -96 85 -9 8 -37 33 -62 55 -25 22 -74 65 -108 95 -87 76
-91 80 -146 125 -26 22 -52 45 -58 51 -6 5 -56 48 -111 94 -55 46 -102 87
-105 90 -11 14 -488 406 -675 555 -110 88 -206 166 -215 172 -217 176 -801
611 -1133 845 -84 58 -177 125 -208 147 -31 23 -61 41 -67 41 -6 0 -12 4 -14
9 -3 7 -392 270 -583 393 -307 198 -773 479 -1075 648 -47 26 -101 56 -120 67
-587 330 -1320 683 -1974 948 -511 207 -1183 438 -1651 565 -510 139 -1181
290 -1450 326 -22 3 -46 7 -54 10 -12 4 -53 11 -191 31 -19 3 -33 3 -30 0z
m17349 -9544 c15 -16 75 -71 132 -123 139 -127 711 -698 830 -829 52 -57 103
-113 114 -125 40 -43 171 -192 229 -261 33 -38 64 -74 70 -80 26 -24 303 -376
422 -535 452 -606 789 -1204 1012 -1795 33 -88 64 -169 68 -180 4 -11 8 -22 9
-25 3 -12 68 -219 81 -259 8 -25 13 -46 11 -47 -1 -2 -124 117 -273 264 -293
291 -330 325 -509 482 -66 58 -122 107 -125 111 -9 10 -255 204 -310 245 -129
95 -171 123 -275 189 -61 39 -120 76 -130 82 -42 27 -300 153 -312 153 -8 0
12 -38 45 -88 251 -372 441 -799 487 -1095 l6 -38 -70 35 c-120 61 -214 92
-371 121 -129 25 -485 24 -612 -1 -13 -2 -45 -6 -73 -9 -27 -3 -61 -7 -75 -10
-14 -3 -40 -8 -57 -11 -18 -3 -61 -11 -95 -18 -35 -7 -65 -12 -69 -10 -3 1 -4
24 -2 51 23 421 13 1245 -22 1743 -3 36 -7 110 -10 165 -3 55 -7 120 -10 145
-2 25 -7 94 -10 155 -3 60 -8 123 -10 140 -2 16 -7 73 -10 125 -3 52 -8 111
-10 130 -2 19 -7 71 -10 115 -3 44 -8 100 -10 125 -2 25 -7 77 -10 115 -3 39
-8 88 -10 110 -5 49 -12 127 -20 220 -3 39 -8 86 -10 105 -2 19 -7 62 -10 95
-4 33 -8 76 -10 95 -2 19 -7 69 -10 110 -3 41 -8 90 -10 108 -6 39 -1 40 34 5z"/>
    <path d="M21688 12065 c-2 -1 -46 -5 -98 -9 -52 -3 -104 -8 -115 -10 -11 -2
-40 -7 -65 -10 -25 -3 -56 -8 -70 -11 -52 -10 -134 -25 -138 -25 -3 0 22 -26
54 -59 132 -131 345 -369 464 -517 185 -231 341 -444 484 -659 191 -288 324
-410 591 -541 152 -74 308 -127 640 -218 343 -93 492 -149 725 -269 141 -73
232 -127 379 -226 173 -116 218 -149 351 -256 41 -33 84 -67 94 -75 99 -79
525 -456 539 -477 4 -7 12 -13 16 -13 5 0 62 52 127 117 160 156 402 347 529
417 17 9 37 21 45 26 213 138 648 317 973 400 26 7 47 16 47 20 0 4 -51 56
-113 116 -470 453 -950 724 -1543 873 -118 29 -284 64 -356 75 -21 3 -75 12
-120 20 -46 8 -112 17 -148 21 -35 4 -67 8 -70 10 -3 1 -34 6 -70 10 -36 4
-67 9 -70 10 -3 2 -35 6 -71 9 -35 4 -76 9 -89 11 -14 3 -45 8 -70 10 -25 3
-56 8 -70 10 -14 2 -43 7 -65 10 -23 3 -50 7 -62 9 -12 3 -43 8 -70 12 -51 7
-73 11 -113 19 -14 2 -36 7 -50 9 -14 3 -50 10 -80 16 -30 6 -68 13 -84 16
-16 3 -32 7 -36 9 -4 2 -22 7 -41 10 -119 21 -419 119 -604 197 -144 61 -384
182 -405 205 -8 9 -9 13 -2 9 14 -8 479 -9 622 -2 100 6 160 12 297 31 107 14
264 61 308 91 19 14 19 14 -5 15 -40 2 -82 6 -132 13 -27 3 -69 9 -95 12 -27
3 -55 7 -63 9 -8 2 -31 7 -50 10 -195 32 -455 112 -765 235 -110 44 -203 80
-208 80 -4 0 -20 6 -35 14 -36 18 -280 100 -359 120 -95 25 -235 50 -337 62
-56 6 -343 13 -348 9z"/>
    <path d="M19663 9745 c5 -18 15 -60 23 -90 28 -111 150 -504 174 -560 4 -11
18 -49 30 -85 12 -36 30 -83 40 -105 9 -22 21 -51 25 -65 13 -42 88 -225 131
-317 13 -28 24 -54 24 -58 0 -3 42 -92 94 -198 297 -607 616 -1071 992 -1443
407 -403 802 -610 1258 -659 31 -4 66 -8 76 -10 10 -2 50 -6 87 -10 37 -3 91
-8 118 -10 79 -7 266 -19 465 -30 115 -6 258 -15 298 -18 18 -2 31 0 30 4 -2
4 -35 42 -75 86 -60 65 -148 168 -221 258 -83 102 -214 299 -260 391 -20 40
-22 41 -59 35 -51 -8 -194 4 -268 24 -111 29 -255 89 -365 152 -78 44 -145 88
-148 95 -2 4 -8 8 -14 8 -16 0 -259 186 -393 301 -125 107 -576 553 -705 698
-41 45 -84 93 -95 105 -60 67 -156 176 -186 211 -19 22 -36 42 -39 45 -3 3
-30 34 -60 70 -30 36 -57 67 -60 70 -4 3 -57 66 -119 140 -63 74 -132 157
-155 184 -22 27 -45 55 -50 63 -4 9 -16 23 -25 32 -24 26 -186 225 -385 475
-17 21 -47 58 -66 81 -19 24 -46 57 -60 75 -14 17 -33 42 -43 53 -17 21 -18
21 -14 2z"/>
    <path d="M30128 7615 c-2 -2 -58 -6 -126 -10 -68 -3 -131 -8 -140 -10 -9 -1
-51 -6 -92 -9 -69 -6 -180 -21 -240 -31 -14 -2 -43 -7 -65 -9 -22 -3 -50 -8
-61 -10 -12 -2 -39 -7 -60 -11 -22 -3 -84 -15 -139 -26 -55 -12 -111 -23 -125
-25 -24 -4 -319 -77 -445 -110 -49 -13 -140 -17 -510 -19 -247 -2 -488 -6
-535 -9 -47 -3 -123 -8 -170 -11 -47 -3 -103 -7 -125 -10 -22 -2 -65 -7 -95
-10 -30 -3 -71 -8 -90 -11 -19 -2 -48 -7 -65 -9 -35 -4 -70 -10 -145 -25 -30
-7 -68 -14 -85 -17 -68 -12 -195 -57 -271 -98 -69 -36 -94 -44 -165 -50 -46
-4 -91 -8 -100 -10 -8 -1 -42 -6 -75 -9 -84 -9 -325 -54 -419 -77 -288 -72
-484 -163 -671 -313 -89 -71 -86 -76 24 -49 220 54 405 93 592 127 47 8 101
18 120 22 19 3 44 8 55 9 11 2 34 6 50 9 66 12 162 27 195 31 19 3 49 7 65 10
17 2 48 7 70 10 22 4 51 8 65 11 14 2 48 6 75 9 28 4 61 8 75 10 14 2 50 6 80
10 30 4 66 8 80 10 14 2 50 6 80 10 30 3 71 8 90 10 19 3 60 7 90 10 30 3 71
8 90 10 31 4 111 11 205 20 17 1 71 5 120 9 50 4 106 9 125 11 19 2 73 7 120
10 47 3 110 8 140 11 30 2 91 7 135 9 44 3 121 7 170 10 88 6 119 7 370 19
217 11 620 25 920 32 232 5 1494 5 1780 -1 428 -8 790 -17 1150 -30 88 -3 228
-7 310 -10 l150 -5 -125 61 c-370 181 -770 322 -1155 409 -27 7 -59 13 -70 16
-11 2 -42 8 -70 14 -75 15 -95 19 -140 25 -22 4 -51 8 -65 10 -141 20 -231 30
-365 41 -73 6 -582 13 -587 9z"/>
  </g>
</svg>
